<?xml version="1.0" encoding="UTF-8"?>
<!DOCTYPE svg PUBLIC "-//W3C//DTD SVG 1.1//EN" "http://www.w3.org/Graphics/SVG/1.1/DTD/svg11.dtd">
<svg xmlns="http://www.w3.org/2000/svg" version="1.1" fill="none" viewBox="250 -500 2000 2000" style="shape-rendering:geometricPrecision; text-rendering:geometricPrecision; image-rendering:optimizeQuality; fill-rule:evenodd; clip-rule:evenodd" xmlns:xlink="http://www.w3.org/1999/xlink">
<g><path style="opacity:0.985" fill="#fefffe" d="M -0.5,-0.5 C 919.833,-0.5 1840.17,-0.5 2760.5,-0.5C 2760.5,285.5 2760.5,571.5 2760.5,857.5C 1840.17,857.5 919.833,857.5 -0.5,857.5C -0.5,571.5 -0.5,285.5 -0.5,-0.5 Z M 49.5,49.5 C 936.5,49.5 1823.5,49.5 2710.5,49.5C 2710.5,302.167 2710.5,554.833 2710.5,807.5C 1823.5,807.5 936.5,807.5 49.5,807.5C 49.5,554.833 49.5,302.167 49.5,49.5 Z M 2129.5,246.5 C 2162.83,246.5 2196.17,246.5 2229.5,246.5C 2229.5,286.5 2229.5,326.5 2229.5,366.5C 2189.83,366.5 2150.17,366.5 2110.5,366.5C 2110.33,332.165 2110.5,297.832 2111,263.5C 2114.22,254.445 2120.38,248.778 2129.5,246.5 Z M 2350.5,246.5 C 2383.83,246.333 2417.17,246.5 2450.5,247C 2461.67,248.833 2468.17,255.333 2470,266.5C 2470.5,299.832 2470.67,333.165 2470.5,366.5C 2430.5,366.5 2390.5,366.5 2350.5,366.5C 2350.5,326.5 2350.5,286.5 2350.5,246.5 Z M 2110.5,487.5 C 2150.17,487.5 2189.83,487.5 2229.5,487.5C 2229.5,513.833 2229.5,540.167 2229.5,566.5C 2216.5,566.5 2203.5,566.5 2190.5,566.5C 2190.5,553.167 2190.5,539.833 2190.5,526.5C 2176.83,526.5 2163.17,526.5 2149.5,526.5C 2149.5,540.167 2149.5,553.833 2149.5,567.5C 2162.83,567.5 2176.17,567.5 2189.5,567.5C 2189.5,580.5 2189.5,593.5 2189.5,606.5C 2168.5,606.667 2147.5,606.5 2126.5,606C 2118.64,603.474 2113.47,598.307 2111,590.5C 2110.5,556.168 2110.33,521.835 2110.5,487.5 Z"/></g>
<g><path style="opacity:0.98" fill="#fefffe" d="M 2101.5,205.5 C 2157.83,205.5 2214.17,205.5 2270.5,205.5C 2270.5,272.833 2270.5,340.167 2270.5,407.5C 2203.17,407.5 2135.83,407.5 2068.5,407.5C 2068.33,352.166 2068.5,296.832 2069,241.5C 2071.84,222.092 2082.67,210.092 2101.5,205.5 Z M 2129.5,246.5 C 2120.38,248.778 2114.22,254.445 2111,263.5C 2110.5,297.832 2110.33,332.165 2110.5,366.5C 2150.17,366.5 2189.83,366.5 2229.5,366.5C 2229.5,326.5 2229.5,286.5 2229.5,246.5C 2196.17,246.5 2162.83,246.5 2129.5,246.5 Z"/></g>
<g><path style="opacity:0.982" fill="#fefffe" d="M 2309.5,205.5 C 2365.83,205.333 2422.17,205.5 2478.5,206C 2496.67,209.504 2507.5,220.337 2511,238.5C 2511.5,294.832 2511.67,351.166 2511.5,407.5C 2444.17,407.5 2376.83,407.5 2309.5,407.5C 2309.5,340.167 2309.5,272.833 2309.5,205.5 Z M 2350.5,246.5 C 2350.5,286.5 2350.5,326.5 2350.5,366.5C 2390.5,366.5 2430.5,366.5 2470.5,366.5C 2470.67,333.165 2470.5,299.832 2470,266.5C 2468.17,255.333 2461.67,248.833 2450.5,247C 2417.17,246.5 2383.83,246.333 2350.5,246.5 Z"/></g>
<g><path style="opacity:0.991" fill="#fefffe" d="M 243.5,247.5 C 317.833,247.5 392.167,247.5 466.5,247.5C 466.5,260.833 466.5,274.167 466.5,287.5C 406.5,287.5 346.5,287.5 286.5,287.5C 286.5,326.833 286.5,366.167 286.5,405.5C 342.5,405.5 398.5,405.5 454.5,405.5C 454.5,418.833 454.5,432.167 454.5,445.5C 398.5,445.5 342.5,445.5 286.5,445.5C 286.5,499.5 286.5,553.5 286.5,607.5C 272.167,607.5 257.833,607.5 243.5,607.5C 243.5,487.5 243.5,367.5 243.5,247.5 Z"/></g>
<g><path style="opacity:0.986" fill="#fefffe" d="M 666.5,247.5 C 680.833,247.5 695.167,247.5 709.5,247.5C 709.5,353.833 709.5,460.167 709.5,566.5C 764.167,566.5 818.833,566.5 873.5,566.5C 873.5,580.167 873.5,593.833 873.5,607.5C 804.5,607.5 735.5,607.5 666.5,607.5C 666.5,487.5 666.5,367.5 666.5,247.5 Z"/></g>
<g><path style="opacity:0.985" fill="#fefffe" d="M 1072.5,247.5 C 1086.83,247.5 1101.17,247.5 1115.5,247.5C 1115.33,318.834 1115.5,390.167 1116,461.5C 1116.03,482.646 1120.03,502.979 1128,522.5C 1145.08,554.85 1172.08,570.516 1209,569.5C 1259.26,568.915 1289.26,543.915 1299,494.5C 1300.56,486.234 1301.56,477.901 1302,469.5C 1302.5,395.501 1302.67,321.501 1302.5,247.5C 1317.17,247.5 1331.83,247.5 1346.5,247.5C 1346.67,324.167 1346.5,400.834 1346,477.5C 1340.49,563.345 1294.82,607.345 1209,609.5C 1127.64,608.176 1082.31,567.176 1073,486.5C 1072.5,406.834 1072.33,327.167 1072.5,247.5 Z"/></g>
<g><path style="opacity:0.975" fill="#fefffe" d="M 1551.5,248.5 C 1570.34,247.172 1589.34,247.172 1608.5,248.5C 1640.14,294.638 1671.97,340.638 1704,386.5C 1735.3,340.363 1766.8,294.363 1798.5,248.5C 1816.82,247.334 1835.16,247.167 1853.5,248C 1813.38,304.412 1773.38,360.912 1733.5,417.5C 1777.5,480.5 1821.5,543.5 1865.5,606.5C 1846.17,607.833 1826.83,607.833 1807.5,606.5C 1772.53,553.697 1737.36,501.031 1702,448.5C 1666.5,501.333 1631,554.167 1595.5,607C 1577.49,607.833 1559.49,607.666 1541.5,606.5C 1585.09,543.634 1628.43,480.634 1671.5,417.5C 1632.23,360.613 1592.23,304.279 1551.5,248.5 Z"/></g>
<g><path style="opacity:0.98" fill="#fefffe" d="M 2149.5,285.5 C 2163.17,285.5 2176.83,285.5 2190.5,285.5C 2190.5,299.167 2190.5,312.833 2190.5,326.5C 2176.83,326.5 2163.17,326.5 2149.5,326.5C 2149.5,312.833 2149.5,299.167 2149.5,285.5 Z"/></g>
<g><path style="opacity:0.973" fill="#fefffe" d="M 2390.5,285.5 C 2404.17,285.5 2417.83,285.5 2431.5,285.5C 2431.5,299.167 2431.5,312.833 2431.5,326.5C 2417.83,326.5 2404.17,326.5 2390.5,326.5C 2390.5,312.833 2390.5,299.167 2390.5,285.5 Z"/></g>
<g><path style="opacity:0.975" fill="#fefffe" d="M 2068.5,446.5 C 2135.83,446.5 2203.17,446.5 2270.5,446.5C 2270.5,486.833 2270.5,527.167 2270.5,567.5C 2257.17,567.5 2243.83,567.5 2230.5,567.5C 2230.5,580.5 2230.5,593.5 2230.5,606.5C 2243.83,606.5 2257.17,606.5 2270.5,606.5C 2270.5,620.5 2270.5,634.5 2270.5,648.5C 2256.83,648.5 2243.17,648.5 2229.5,648.5C 2229.5,634.833 2229.5,621.167 2229.5,607.5C 2216.5,607.5 2203.5,607.5 2190.5,607.5C 2190.5,621.167 2190.5,634.833 2190.5,648.5C 2160.13,648.944 2129.8,648.444 2099.5,647C 2081.56,642.393 2071.39,630.893 2069,612.5C 2068.5,557.168 2068.33,501.834 2068.5,446.5 Z M 2110.5,487.5 C 2110.33,521.835 2110.5,556.168 2111,590.5C 2113.47,598.307 2118.64,603.474 2126.5,606C 2147.5,606.5 2168.5,606.667 2189.5,606.5C 2189.5,593.5 2189.5,580.5 2189.5,567.5C 2176.17,567.5 2162.83,567.5 2149.5,567.5C 2149.5,553.833 2149.5,540.167 2149.5,526.5C 2163.17,526.5 2176.83,526.5 2190.5,526.5C 2190.5,539.833 2190.5,553.167 2190.5,566.5C 2203.5,566.5 2216.5,566.5 2229.5,566.5C 2229.5,540.167 2229.5,513.833 2229.5,487.5C 2189.83,487.5 2150.17,487.5 2110.5,487.5 Z"/></g>
<g><path style="opacity:0.981" fill="#fefffe" d="M 2349.5,446.5 C 2403.5,446.5 2457.5,446.5 2511.5,446.5C 2511.5,473.5 2511.5,500.5 2511.5,527.5C 2498.17,527.5 2484.83,527.5 2471.5,527.5C 2471.5,540.833 2471.5,554.167 2471.5,567.5C 2458.17,567.5 2444.83,567.5 2431.5,567.5C 2431.5,580.833 2431.5,594.167 2431.5,607.5C 2458.17,607.5 2484.83,607.5 2511.5,607.5C 2511.5,620.833 2511.5,634.167 2511.5,647.5C 2470.83,647.5 2430.17,647.5 2389.5,647.5C 2389.5,620.5 2389.5,593.5 2389.5,566.5C 2403.17,566.5 2416.83,566.5 2430.5,566.5C 2430.5,553.167 2430.5,539.833 2430.5,526.5C 2443.83,526.5 2457.17,526.5 2470.5,526.5C 2470.5,513.5 2470.5,500.5 2470.5,487.5C 2430.5,487.5 2390.5,487.5 2350.5,487.5C 2350.5,540.833 2350.5,594.167 2350.5,647.5C 2336.83,647.5 2323.17,647.5 2309.5,647.5C 2309.5,593.833 2309.5,540.167 2309.5,486.5C 2322.83,486.5 2336.17,486.5 2349.5,486.5C 2349.5,473.167 2349.5,459.833 2349.5,446.5 Z"/></g>
</svg>
