<svg width="152" height="35" viewBox="0 0 152 35" fill="none" xmlns="http://www.w3.org/2000/svg">
<path d="M151.567 12.6151C149.966 12.7318 146.309 13.1835 145.263 13.3348C144.241 7.69849 141.407 3.68955 137.272 2.74513C128.848 0.81522 120.348 12.1267 114.536 32.9883L118.877 34.192C124.461 14.1474 131.776 6.10139 136.267 7.12794C138.321 7.59691 140.097 10.1622 140.825 14.1495C130.089 16.6089 127.856 21.2856 128.107 25.1044C128.31 28.2272 129.981 30.8012 132.688 32.1649C135.422 33.5415 138.754 33.4291 141.173 31.8817C144.215 29.9346 144.68 27.097 144.986 25.2189C144.986 25.2189 145.579 20.9161 145.627 19.1612C143.935 19.4097 142.378 19.721 141.091 20.0667C141.015 21.2683 140.541 24.4949 140.541 24.4949C140.255 26.2433 140.03 27.2742 138.741 28.0997C137.671 28.7848 136.016 28.8086 134.718 28.1538C133.823 27.7021 132.727 26.7577 132.602 24.8126C132.431 22.1825 135.478 20.0473 141.173 18.6663C141.193 18.6642 141.206 18.6555 141.225 18.6512C145.352 17.7089 152 17.0865 152 17.0865L151.567 12.6151Z" fill="black"/>
<path d="M100.2 8.36377C95.0594 8.36377 90.8938 12.5197 90.8938 17.6481C90.8938 22.7765 95.0594 26.9324 100.2 26.9324C105.34 26.9324 109.506 22.7765 109.506 17.6481C109.506 12.5197 105.34 8.36377 100.2 8.36377ZM100.2 22.9234C97.2798 22.9234 94.9121 20.5613 94.9121 17.6481C94.9121 14.7348 97.2798 12.3727 100.2 12.3727C103.12 12.3727 105.487 14.7348 105.487 17.6481C105.487 20.5613 103.12 22.9234 100.2 22.9234Z" fill="black"/>
<path d="M48.7154 0H44.2617V26.2882H48.7154V0Z" fill="black"/>
<path d="M13.7813 8.67066V9.53295C12.4513 8.80032 10.935 8.36377 9.30599 8.36377C4.1656 8.36377 0 12.5197 0 17.6481C0 22.7765 4.1656 26.9324 9.30599 26.9324C10.9371 26.9324 12.4556 26.4958 13.7813 25.7545V26.6168H18.235V8.67066H13.7813ZM9.30815 22.9234C6.38812 22.9234 4.02046 20.5613 4.02046 17.6481C4.02046 14.7348 6.38812 12.3727 9.30815 12.3727C12.2282 12.3727 14.5958 14.7348 14.5958 17.6481C14.5958 20.5613 12.2282 22.9234 9.30815 22.9234Z" fill="black"/>
<path d="M31.4747 8.36377C29.8479 8.36377 28.3294 8.80032 26.9994 9.53295V8.67066H22.5457V34.9999H26.9994V25.7502C28.3251 26.4915 29.8414 26.928 31.4747 26.928C36.6151 26.928 40.7807 22.7722 40.7807 17.6438C40.7807 12.5153 36.6129 8.36377 31.4747 8.36377ZM31.4747 22.9234C28.5547 22.9234 26.187 20.5613 26.187 17.6481C26.187 14.7348 28.5547 12.3727 31.4747 12.3727C34.3947 12.3727 36.7624 14.7348 36.7624 17.6481C36.7624 20.5613 34.3947 22.9234 31.4747 22.9234Z" fill="black"/>
<path d="M89.8691 8.62073H73.601V12.3379H82.9958L73.2544 26.6577H89.4446V22.934H80.1321L89.8691 8.62073Z" fill="black"/>
<path d="M66.0106 8.67066V9.53295C64.6805 8.80032 63.1642 8.36377 61.5352 8.36377C56.3948 8.36377 52.2292 12.5197 52.2292 17.6481C52.2292 22.7765 56.3948 26.9324 61.5352 26.9324C63.1664 26.9324 64.6849 26.4958 66.0106 25.7545V26.6168H70.4643V8.67066H66.0106ZM61.5352 22.9234C58.6152 22.9234 56.2476 20.5613 56.2476 17.6481C56.2476 14.7348 58.6152 12.3727 61.5352 12.3727C64.4553 12.3727 66.8229 14.7348 66.8229 17.6481C66.8229 20.5613 64.4553 22.9234 61.5352 22.9234Z" fill="black"/>
</svg>
