<?xml version="1.0" standalone="no"?>
<!DOCTYPE svg PUBLIC "-//W3C//DTD SVG 20010904//EN"
 "http://www.w3.org/TR/2001/REC-SVG-20010904/DTD/svg10.dtd">
<svg version="1.0" xmlns="http://www.w3.org/2000/svg"
 width="612.000000pt" height="82.000000pt" viewBox="0 0 612.000000 82.000000"
 preserveAspectRatio="xMidYMid meet">

<g transform="translate(0.000000,82.000000) scale(0.100000,-0.100000)"
fill="#000000" stroke="none">
<path d="M438 753 c28 -9 52 -19 52 -23 0 -3 -33 -19 -72 -34 -96 -37 -166
-76 -243 -137 -144 -113 -200 -229 -161 -332 33 -88 110 -128 256 -134 l95 -4
-49 20 c-61 25 -84 46 -107 96 -66 144 48 321 292 449 l91 49 62 -29 c33 -16
94 -51 134 -78 176 -119 250 -268 193 -391 -23 -50 -46 -71 -107 -96 l-49 -20
95 4 c151 6 233 52 261 148 45 148 -138 353 -406 455 -41 16 -75 31 -75 35 0
3 24 13 53 22 l52 16 -50 -6 c-27 -4 -99 -6 -160 -6 -60 0 -132 2 -160 6 l-50
6 53 -16z"/>
<path d="M1467 568 c-6 -35 -83 -407 -92 -445 l-5 -23 143 0 c79 0 147 3 151
7 8 8 13 9 42 12 9 0 12 6 8 13 -4 7 -3 8 4 4 19 -11 59 33 72 80 16 56 4 86
-45 115 -37 22 -45 39 -20 39 50 0 105 60 105 114 0 28 -19 76 -31 76 -4 0
-15 8 -25 18 -15 14 -41 18 -159 20 l-142 4 -6 -34z m226 -72 c17 -14 23 -52
9 -73 -11 -18 -59 -33 -104 -33 l-40 0 7 48 c4 26 8 53 8 60 0 17 97 15 120
-2z m-34 -200 c8 -9 16 -28 17 -44 2 -39 -37 -62 -103 -62 -60 0 -59 0 -42 80
l11 51 50 -5 c28 -2 58 -12 67 -20z"/>
<path d="M3953 583 c-4 -10 -37 -69 -75 -131 -37 -62 -68 -115 -68 -117 0 -2
-23 -41 -51 -87 -29 -46 -61 -98 -71 -116 l-20 -32 65 0 66 0 28 50 28 50 98
0 c53 0 100 0 105 0 4 1 10 -20 14 -46 4 -25 9 -48 11 -50 3 -3 31 -4 64 -2
l59 3 -11 70 c-7 39 -25 150 -40 248 l-28 177 -84 0 c-70 0 -85 -3 -90 -17z
m91 -191 c3 -40 7 -78 9 -85 1 -7 -17 -14 -48 -17 -64 -7 -85 -2 -85 16 0 14
72 154 94 182 14 19 21 -5 30 -96z"/>
<path d="M4809 563 c-51 -13 -57 -18 -63 -45 -8 -42 -24 -59 -50 -53 -29 7
-45 -6 -52 -43 -6 -31 -6 -32 30 -32 42 0 42 0 20 -107 -29 -142 1 -196 109
-192 32 1 60 7 62 13 17 56 15 63 -13 58 -49 -7 -58 16 -44 114 17 116 16 114
72 114 47 0 48 0 52 35 2 19 2 35 -2 36 -3 0 -20 2 -38 4 -18 1 -35 5 -38 8
-3 2 0 26 6 52 6 26 9 49 8 50 -2 1 -28 -5 -59 -12z"/>
<path d="M520 514 c-19 -8 -43 -23 -54 -32 -25 -22 -66 -110 -66 -142 0 -188
239 -271 349 -120 114 157 -52 371 -229 294z"/>
<path d="M2555 470 c-36 -8 -77 -30 -88 -47 -11 -18 -34 -16 -41 2 -3 8 -1 15
4 15 6 0 10 6 10 13 0 12 -15 14 -88 9 -17 -2 -22 -8 -22 -29 1 -24 -53 -288
-64 -319 -3 -7 16 -12 54 -13 l58 -2 10 48 c6 27 14 66 18 88 16 93 58 145
117 145 33 0 47 -19 47 -61 0 -33 -22 -155 -35 -200 -5 -13 5 -16 60 -18 36
-1 65 -1 65 1 0 2 9 50 20 108 24 126 25 171 5 210 -23 44 -73 64 -130 50z"/>
<path d="M1975 463 c-27 -6 -45 -31 -45 -61 0 -19 4 -23 18 -17 9 4 41 10 69
13 63 5 103 -15 103 -53 0 -23 -2 -24 -43 -19 -167 23 -299 -107 -208 -205 26
-28 35 -31 85 -31 31 0 56 4 56 10 0 5 6 7 13 5 17 -7 61 30 53 44 -4 6 -12 8
-18 5 -7 -5 -8 -2 -3 6 11 18 46 -25 38 -45 -4 -12 5 -15 43 -15 l49 0 19 93
c37 176 28 235 -39 263 -32 13 -145 18 -190 7z m125 -213 c0 -12 -15 -36 -32
-54 -35 -34 -74 -40 -104 -15 -16 13 -19 59 -3 59 5 0 7 5 3 12 -4 6 -3 8 2 5
6 -3 16 -2 24 4 8 5 36 9 63 9 41 0 47 -3 47 -20z"/>
<path d="M2868 445 c-109 -56 -149 -190 -85 -286 32 -49 79 -69 158 -69 73 0
92 12 103 66 l7 31 -50 -5 c-67 -6 -95 2 -117 35 -31 47 -11 123 40 157 28 18
91 21 129 7 22 -9 25 -6 35 27 8 25 8 40 1 47 -5 5 -47 11 -92 12 -69 2 -89
-2 -129 -22z"/>
<path d="M3231 457 c-74 -23 -141 -117 -141 -197 0 -61 43 -135 83 -143 7 -1
15 -6 18 -11 16 -22 217 -17 204 5 -3 5 1 6 9 3 21 -8 101 75 116 121 16 49 8
130 -17 163 -35 48 -90 70 -168 70 -38 0 -86 -5 -104 -11z m132 -68 c12 -7 25
-17 29 -23 14 -21 8 -117 -9 -146 -49 -84 -163 -56 -163 40 0 49 20 90 56 119
30 24 55 26 87 10z m102 -208 c3 -5 2 -12 -3 -15 -5 -3 -9 1 -9 9 0 17 3 19
12 6z"/>
<path d="M4438 462 c-113 -2 -128 -5 -128 -20 0 -9 -3 -27 -6 -39 -6 -22 -4
-23 70 -23 42 0 76 -4 76 -9 0 -5 -30 -35 -67 -67 -38 -31 -67 -63 -67 -70 1
-7 -4 -10 -10 -8 -20 8 -55 -39 -62 -84 l-7 -42 162 0 c130 0 161 3 161 14 0
7 3 28 6 45 l7 31 -89 0 -89 0 53 48 c29 26 76 68 106 95 38 34 56 58 63 86
10 39 10 39 -21 43 -17 1 -88 2 -158 0z"/>
<path d="M5075 459 c-48 -18 -103 -78 -121 -132 -31 -93 2 -179 82 -218 39
-18 58 -21 125 -17 44 3 84 9 89 14 5 5 13 24 16 42 6 30 4 32 -20 32 -14 0
-26 -3 -26 -7 0 -13 -105 -6 -131 8 -13 7 -27 13 -30 12 -3 -1 -3 11 -1 27 l4
29 132 3 131 3 3 34 c6 58 -8 101 -44 139 -33 35 -38 37 -107 39 -39 1 -85 -2
-102 -8z m138 -77 c9 -10 18 -29 19 -43 3 -23 1 -24 -71 -27 -99 -4 -107 0
-85 37 10 16 27 34 38 40 34 16 81 13 99 -7z"/>
<path d="M5527 463 c-9 -2 -15 -9 -12 -14 3 -5 0 -6 -7 -4 -20 8 -95 -64 -113
-107 -34 -83 -12 -168 56 -217 38 -28 50 -31 113 -31 39 0 76 4 83 8 7 4 16
26 21 48 l9 40 -63 -4 c-57 -4 -65 -2 -88 21 -46 46 -30 139 29 171 27 15 47
18 93 13 l59 -6 10 33 c10 31 8 35 -14 45 -23 11 -140 13 -176 4z"/>
<path d="M5844 460 c-14 -5 -23 -20 -27 -42 -2 -18 -4 -34 -2 -36 1 -1 14 2
29 8 46 17 121 13 140 -9 35 -38 18 -53 -64 -56 -85 -3 -134 -20 -170 -59 -20
-22 -25 -37 -24 -78 1 -43 6 -55 28 -75 39 -33 119 -32 170 2 38 26 59 26 49
0 -4 -12 5 -15 45 -15 l50 0 10 48 c49 231 47 216 26 253 -29 50 -75 69 -164
68 -41 0 -85 -4 -96 -9z m146 -209 c0 -10 -13 -33 -29 -50 -15 -16 -27 -32
-25 -34 2 -1 -18 0 -43 3 -110 12 -67 99 50 100 40 0 47 -3 47 -19z"/>
</g>
</svg>
