<?xml version="1.0" encoding="UTF-8"?>
<!DOCTYPE svg PUBLIC "-//W3C//DTD SVG 1.1//EN" "http://www.w3.org/Graphics/SVG/1.1/DTD/svg11.dtd">
<svg xmlns="http://www.w3.org/2000/svg" version="1.1" width="2643px" height="1256px" style="shape-rendering:geometricPrecision; text-rendering:geometricPrecision; image-rendering:optimizeQuality; fill-rule:evenodd; clip-rule:evenodd" xmlns:xlink="http://www.w3.org/1999/xlink">
<g><path style="opacity:0.988" fill="#c4495a" d="M 2298.5,881.5 C 2345.83,753.009 2393.66,624.675 2442,496.5C 2444.12,483.91 2439.29,475.076 2427.5,470C 2221.1,393.303 2014.76,316.303 1808.5,239C 1806.12,238.284 1804.12,237.117 1802.5,235.5C 1817.91,209.023 1833.07,182.357 1848,155.5C 1856.44,147.998 1865.94,146.498 1876.5,151C 2079.83,266.667 2283.17,382.333 2486.5,498C 2501.15,505.955 2504.99,517.455 2498,532.5C 2431.64,649.001 2365.14,765.335 2298.5,881.5 Z"/></g>
<g><path style="opacity:0.999" fill="#7a9ed0" d="M 1802.5,235.5 C 1804.12,237.117 1806.12,238.284 1808.5,239C 2014.76,316.303 2221.1,393.303 2427.5,470C 2439.29,475.076 2444.12,483.91 2442,496.5C 2393.66,624.675 2345.83,753.009 2298.5,881.5C 2298.34,883.153 2297.67,884.486 2296.5,885.5C 2318.78,749.142 2341.28,612.809 2364,476.5C 2365.29,462.763 2359.12,454.263 2345.5,451C 2129.63,415.577 1913.96,379.743 1698.5,343.5C 1711.81,305.204 1725.98,267.204 1741,229.5C 1748.47,222.091 1757.3,219.925 1767.5,223C 1779.09,227.473 1790.75,231.64 1802.5,235.5 Z"/></g>
<g><path style="opacity:0.999" fill="#ce851a" d="M 1698.5,343.5 C 1913.96,379.743 2129.63,415.577 2345.5,451C 2359.12,454.263 2365.29,462.763 2364,476.5C 2341.28,612.809 2318.78,749.142 2296.5,885.5C 2296.77,887.099 2296.43,888.432 2295.5,889.5C 2295.67,746.166 2295.5,602.833 2295,459.5C 2291.62,451.214 2285.45,446.38 2276.5,445C 2053.83,444.5 1831.17,444.333 1608.5,444.5C 1613.77,413.898 1618.93,383.231 1624,352.5C 1626.96,341.066 1634.46,335.4 1646.5,335.5C 1663.95,337.519 1681.28,340.186 1698.5,343.5 Z"/></g>
<g><path style="opacity:1" fill="#365fa2" d="M 1608.5,444.5 C 1831.17,444.333 2053.83,444.5 2276.5,445C 2285.45,446.38 2291.62,451.214 2295,459.5C 2295.5,602.833 2295.67,746.166 2295.5,889.5C 2298.13,904.365 2292.13,913.531 2277.5,917C 2039.5,917.667 1801.5,917.667 1563.5,917C 1555.34,915.503 1549.5,911.003 1546,903.5C 1545.33,754.833 1545.33,606.167 1546,457.5C 1548.24,450.93 1552.74,446.763 1559.5,445C 1575.83,444.5 1592.16,444.333 1608.5,444.5 Z"/></g>
<g><path style="opacity:0.978" fill="#325b93" d="M 265.5,512.5 C 314.821,508.516 356.154,524.516 389.5,560.5C 378.508,570.657 367.341,580.657 356,590.5C 320.95,554.025 280.783,547.192 235.5,570C 195.265,597.694 181.765,635.194 195,682.5C 208.819,716.991 233.986,737.491 270.5,744C 304.989,747.658 333.489,736.491 356,710.5C 367,720.167 378,729.833 389,739.5C 389.667,740.167 389.667,740.833 389,741.5C 347.322,785.133 297.156,798.967 238.5,783C 183.436,763.605 151.269,725.105 142,667.5C 137.729,604.526 162.895,557.693 217.5,527C 232.871,519.663 248.871,514.83 265.5,512.5 Z"/></g>
<g><path style="opacity:0.987" fill="#325b93" d="M 1289.5,515.5 C 1304.83,515.5 1320.17,515.5 1335.5,515.5C 1335.33,575.168 1335.5,634.834 1336,694.5C 1339.65,719.144 1353.15,735.644 1376.5,744C 1382.05,745.677 1387.72,746.51 1393.5,746.5C 1393.5,760.833 1393.5,775.167 1393.5,789.5C 1347.5,788.277 1315,766.944 1296,725.5C 1293.06,717.736 1291.06,709.736 1290,701.5C 1289.5,639.501 1289.33,577.501 1289.5,515.5 Z"/></g>
<g><path style="opacity:1" fill="#f9e74c" d="M 1590.5,531.5 C 1621.17,531.333 1651.84,531.5 1682.5,532C 1733.37,540.363 1760.7,570.197 1764.5,621.5C 1763.92,659.506 1746.92,687.339 1713.5,705C 1702.59,709.561 1691.26,712.561 1679.5,714C 1664.5,714.5 1649.5,714.667 1634.5,714.5C 1634.5,740.167 1634.5,765.833 1634.5,791.5C 1619.83,791.5 1605.17,791.5 1590.5,791.5C 1590.5,704.833 1590.5,618.167 1590.5,531.5 Z"/></g>
<g><path style="opacity:1" fill="#9e9b8e" d="M 1635.5,575.5 C 1635.5,606.833 1635.5,638.167 1635.5,669.5C 1649.5,669.5 1663.5,669.5 1677.5,669.5C 1663.34,670.496 1649.01,670.829 1634.5,670.5C 1634.17,638.662 1634.5,606.996 1635.5,575.5 Z"/></g>
<g><path style="opacity:1" fill="#365fa2" d="M 1635.5,575.5 C 1650.17,575.333 1664.84,575.5 1679.5,576C 1712.8,584.094 1725.64,604.927 1718,638.5C 1710.73,656.937 1697.23,667.27 1677.5,669.5C 1663.5,669.5 1649.5,669.5 1635.5,669.5C 1635.5,638.167 1635.5,606.833 1635.5,575.5 Z"/></g>
<g><path style="opacity:0.981" fill="#325b93" d="M 727.5,584.5 C 763.869,583.442 794.035,596.442 818,623.5C 840.352,655.325 845.019,689.659 832,726.5C 816.704,760.788 790.538,781.288 753.5,788C 725.377,792.608 699.043,787.774 674.5,773.5C 673.5,806.493 673.167,839.493 673.5,872.5C 658.167,872.5 642.833,872.5 627.5,872.5C 627.333,807.499 627.5,742.499 628,677.5C 633.146,635.005 655.646,606.172 695.5,591C 706.071,587.632 716.737,585.466 727.5,584.5 Z M 727.5,627.5 C 762.588,626.765 784.088,643.431 792,677.5C 795.101,714.173 778.934,737.006 743.5,746C 701.803,748.47 678.47,728.97 673.5,687.5C 675.93,653.214 693.93,633.214 727.5,627.5 Z"/></g>
<g><path style="opacity:0.984" fill="#325b93" d="M 955.5,584.5 C 997.28,583.637 1029.78,600.304 1053,634.5C 1069.44,666.54 1070.77,699.207 1057,732.5C 1039.25,765.867 1011.42,784.701 973.5,789C 948.085,791.551 924.418,786.385 902.5,773.5C 901.5,806.493 901.167,839.493 901.5,872.5C 886.167,872.5 870.833,872.5 855.5,872.5C 855.333,806.166 855.5,739.832 856,673.5C 863.618,628.546 889.451,600.046 933.5,588C 940.93,586.501 948.263,585.334 955.5,584.5 Z M 954.5,627.5 C 991.724,627.008 1013.56,645.008 1020,681.5C 1020.94,716.467 1004.44,737.967 970.5,746C 940.403,749.375 918.903,737.542 906,710.5C 895.787,679.812 903.62,654.979 929.5,636C 937.45,631.629 945.783,628.795 954.5,627.5 Z"/></g>
<g><path style="opacity:0.979" fill="#325b93" d="M 1169.5,584.5 C 1235.67,586.502 1270.34,620.669 1273.5,687C 1273.19,691.176 1272.86,695.342 1272.5,699.5C 1222.5,699.5 1172.5,699.5 1122.5,699.5C 1126.32,728.151 1142.65,744.318 1171.5,748C 1195.3,750.735 1215.47,743.568 1232,726.5C 1241.17,735.667 1250.33,744.833 1259.5,754C 1249.72,767.094 1237.05,776.427 1221.5,782C 1193.9,791.452 1166.24,791.785 1138.5,783C 1097.74,764.174 1077.4,732.174 1077.5,687C 1078.08,636.799 1102.08,603.799 1149.5,588C 1156.26,586.502 1162.92,585.335 1169.5,584.5 Z M 1173.5,624.5 C 1192.98,624.324 1208.48,631.99 1220,647.5C 1223.54,653.345 1225.37,659.678 1225.5,666.5C 1191.5,666.5 1157.5,666.5 1123.5,666.5C 1126.99,650.163 1136.32,638.33 1151.5,631C 1158.69,627.877 1166.02,625.71 1173.5,624.5 Z"/></g>
<g><path style="opacity:0.979" fill="#325b93" d="M 491.5,585.5 C 528.294,581.929 559.794,592.929 586,618.5C 612.358,651.316 618.358,687.649 604,727.5C 584.157,768.105 551.491,788.772 506,789.5C 459.38,788.719 426.38,767.386 407,725.5C 392.567,682.31 401.067,644.477 432.5,612C 449.63,597.459 469.297,588.626 491.5,585.5 Z M 502.5,627.5 C 543.6,629.765 564.433,651.432 565,692.5C 561.063,721.436 544.896,739.27 516.5,746C 486.056,749.7 464.222,737.866 451,710.5C 443.069,687.679 446.403,666.679 461,647.5C 472.353,635.556 486.186,628.889 502.5,627.5 Z"/></g>
<g><path style="opacity:1" fill="#f9e74c" d="M 1981.5,683.5 C 1981.5,718.5 1981.5,753.5 1981.5,788.5C 1967.17,788.5 1952.83,788.5 1938.5,788.5C 1938.82,784.445 1938.49,780.445 1937.5,776.5C 1906.38,793.663 1874.04,796.163 1840.5,784C 1799.64,764.473 1780.14,731.973 1782,686.5C 1787.81,642.019 1812.31,613.519 1855.5,601C 1896.9,592.298 1932.06,603.131 1961,633.5C 1972.51,648.192 1979.34,664.859 1981.5,683.5 Z"/></g>
<g><path style="opacity:1" fill="#7a819a" d="M 2061.5,598.5 C 2046.83,598.5 2032.17,598.5 2017.5,598.5C 2017.5,633.5 2017.5,668.5 2017.5,703.5C 2016.5,668.337 2016.17,633.004 2016.5,597.5C 2031.68,597.171 2046.68,597.504 2061.5,598.5 Z"/></g>
<g><path style="opacity:1" fill="#f9e74c" d="M 2061.5,598.5 C 2061.33,635.502 2061.5,672.502 2062,709.5C 2069.57,733.731 2086.07,745.564 2111.5,745C 2135.79,740.549 2149.12,726.049 2151.5,701.5C 2152.5,667.337 2152.83,633.004 2152.5,598.5C 2166.83,598.5 2181.17,598.5 2195.5,598.5C 2195.67,655.501 2195.5,712.501 2195,769.5C 2184.89,823.777 2152.39,853.444 2097.5,858.5C 2053.53,857.342 2022.03,837.008 2003,797.5C 2001.86,794.568 2001.02,791.568 2000.5,788.5C 2014.84,788.333 2029.17,788.5 2043.5,789C 2062.15,816.106 2087.15,824.439 2118.5,814C 2134.63,806.534 2145.97,794.534 2152.5,778C 2152.17,777.5 2151.83,777 2151.5,776.5C 2109.58,797.641 2072.08,791.641 2039,758.5C 2025.86,742.589 2018.69,724.256 2017.5,703.5C 2017.5,668.5 2017.5,633.5 2017.5,598.5C 2032.17,598.5 2046.83,598.5 2061.5,598.5 Z"/></g>
<g><path style="opacity:1" fill="#c2b77d" d="M 2195.5,598.5 C 2181.17,598.5 2166.83,598.5 2152.5,598.5C 2152.83,633.004 2152.5,667.337 2151.5,701.5C 2151.5,666.833 2151.5,632.167 2151.5,597.5C 2166.34,597.171 2181.01,597.504 2195.5,598.5 Z"/></g>
<g><path style="opacity:1" fill="#375fa2" d="M 1871.5,638.5 C 1902.35,634.995 1923.85,647.328 1936,675.5C 1943.03,700.07 1937.53,721.236 1919.5,739C 1904.66,750.106 1887.99,754.106 1869.5,751C 1847.54,745.709 1833.38,732.209 1827,710.5C 1821.12,683.469 1829.28,661.969 1851.5,646C 1857.89,642.377 1864.55,639.877 1871.5,638.5 Z"/></g>
<g><path style="opacity:1" fill="#f1e055" d="M 2224.5,749.5 C 2242.87,749.367 2251.37,758.367 2250,776.5C 2243.32,791.065 2232.49,795.232 2217.5,789C 2207.3,781.639 2204.8,772.139 2210,760.5C 2213.86,755.468 2218.69,751.801 2224.5,749.5 Z"/></g>
<g><path style="opacity:1" fill="#4564a1" d="M 2223.5,754.5 C 2241,754.142 2247.5,762.475 2243,779.5C 2233.63,790.09 2224.3,790.09 2215,779.5C 2210.74,768.522 2213.57,760.189 2223.5,754.5 Z"/></g>
<g><path style="opacity:1" fill="#f6e450" d="M 2221.5,760.5 C 2225.85,760.334 2230.18,760.501 2234.5,761C 2239.75,764.495 2239.75,767.995 2234.5,771.5C 2237.04,774.308 2238.37,777.641 2238.5,781.5C 2236.71,781.785 2235.05,781.452 2233.5,780.5C 2233.28,775.281 2230.62,772.947 2225.5,773.5C 2225.5,776.167 2225.5,778.833 2225.5,781.5C 2224.17,781.5 2222.83,781.5 2221.5,781.5C 2221.5,774.5 2221.5,767.5 2221.5,760.5 Z"/></g>
<g><path style="opacity:1" fill="#c3b97c" d="M 2221.5,760.5 C 2221.5,767.5 2221.5,774.5 2221.5,781.5C 2222.83,781.5 2224.17,781.5 2225.5,781.5C 2224.08,782.451 2222.41,782.784 2220.5,782.5C 2220.18,774.981 2220.51,767.648 2221.5,760.5 Z"/></g>
<g><path style="opacity:1" fill="#999890" d="M 2230.5,764.5 C 2229.17,764.5 2227.83,764.5 2226.5,764.5C 2226.5,766.167 2226.5,767.833 2226.5,769.5C 2225.54,767.735 2225.21,765.735 2225.5,763.5C 2227.41,763.216 2229.08,763.549 2230.5,764.5 Z"/></g>
<g><path style="opacity:1" fill="#3d61a2" d="M 2230.5,764.5 C 2232.34,765.204 2232.84,766.537 2232,768.5C 2230.3,769.406 2228.47,769.739 2226.5,769.5C 2226.5,767.833 2226.5,766.167 2226.5,764.5C 2227.83,764.5 2229.17,764.5 2230.5,764.5 Z"/></g>
<g><path style="opacity:1" fill="#afa886" d="M 1981.5,683.5 C 1982.5,718.663 1982.83,753.996 1982.5,789.5C 1967.66,789.829 1952.99,789.496 1938.5,788.5C 1952.83,788.5 1967.17,788.5 1981.5,788.5C 1981.5,753.5 1981.5,718.5 1981.5,683.5 Z"/></g>
<g><path style="opacity:0.917" fill="#365fa3" d="M 474.5,988.5 C 487.167,987.659 492.001,993.326 489,1005.5C 483.963,1011.99 477.796,1013.16 470.5,1009C 464.292,1000.61 465.625,993.772 474.5,988.5 Z"/></g>
<g><path style="opacity:0.926" fill="#365fa3" d="M 1099.5,988.5 C 1111.32,987.485 1116.49,992.818 1115,1004.5C 1111.68,1010.91 1106.51,1013.07 1099.5,1011C 1093.09,1007.68 1090.93,1002.51 1093,995.5C 1094.69,992.642 1096.86,990.309 1099.5,988.5 Z"/></g>
<g><path style="opacity:0.916" fill="#365fa3" d="M 1865.5,988.5 C 1879.39,988.289 1883.89,994.623 1879,1007.5C 1873.55,1012.16 1867.72,1012.66 1861.5,1009C 1855.47,1000.64 1856.81,993.805 1865.5,988.5 Z"/></g>
<g><path style="opacity:0.918" fill="#365fa3" d="M 1987.5,988.5 C 1999.85,987.893 2004.68,993.56 2002,1005.5C 1998.56,1010.79 1993.73,1012.63 1987.5,1011C 1979.28,1006.89 1977.45,1000.73 1982,992.5C 1983.5,990.531 1985.33,989.198 1987.5,988.5 Z"/></g>
<g><path style="opacity:0.917" fill="#365fa3" d="M 2062.5,988.5 C 2075.63,987.796 2080.46,993.796 2077,1006.5C 2071.53,1012.04 2065.36,1012.87 2058.5,1009C 2052.78,1000.71 2054.12,993.879 2062.5,988.5 Z"/></g>
<g><path style="opacity:0.953" fill="#365fa3" d="M 1056.5,989.5 C 1062.83,989.5 1069.17,989.5 1075.5,989.5C 1075.19,1022.86 1075.52,1056.2 1076.5,1089.5C 1070.17,1089.5 1063.83,1089.5 1057.5,1089.5C 1057.66,1087.47 1057.5,1085.47 1057,1083.5C 1054.01,1086.49 1050.51,1088.66 1046.5,1090C 1020.55,1092.72 1006.89,1081.05 1005.5,1055C 1006.31,1033.69 1017.31,1021.86 1038.5,1019.5C 1045.02,1019.62 1050.86,1021.62 1056,1025.5C 1056.5,1013.5 1056.67,1001.5 1056.5,989.5 Z M 1035.5,1037.5 C 1045.46,1035.56 1052.3,1039.23 1056,1048.5C 1058.88,1059.57 1055.38,1067.74 1045.5,1073C 1032.33,1074.67 1025.33,1068.84 1024.5,1055.5C 1024.64,1047.2 1028.31,1041.2 1035.5,1037.5 Z"/></g>
<g><path style="opacity:0.942" fill="#365fa3" d="M 1897.5,989.5 C 1903.83,989.5 1910.17,989.5 1916.5,989.5C 1916.33,1002.17 1916.5,1014.84 1917,1027.5C 1928.28,1018.26 1940.45,1017.09 1953.5,1024C 1963.94,1031.78 1968.94,1042.28 1968.5,1055.5C 1966.97,1080.87 1953.63,1092.37 1928.5,1090C 1924.13,1088.73 1920.3,1086.57 1917,1083.5C 1916.5,1085.47 1916.34,1087.47 1916.5,1089.5C 1910.17,1089.5 1903.83,1089.5 1897.5,1089.5C 1897.5,1056.17 1897.5,1022.83 1897.5,989.5 Z M 1931.5,1036.5 C 1946.07,1039.26 1951.57,1047.93 1948,1062.5C 1943.38,1072.39 1935.88,1075.56 1925.5,1072C 1915.79,1064.16 1913.96,1054.66 1920,1043.5C 1922.99,1039.58 1926.82,1037.25 1931.5,1036.5 Z"/></g>
<g><path style="opacity:0.962" fill="#365fa3" d="M 2019.5,989.5 C 2025.83,989.5 2032.17,989.5 2038.5,989.5C 2038.5,1022.83 2038.5,1056.17 2038.5,1089.5C 2032.17,1089.5 2025.83,1089.5 2019.5,1089.5C 2019.5,1056.17 2019.5,1022.83 2019.5,989.5 Z"/></g>
<g><path style="opacity:0.944" fill="#365fa3" d="M 2141.5,989.5 C 2147.83,989.5 2154.17,989.5 2160.5,989.5C 2160.5,1022.83 2160.5,1056.17 2160.5,1089.5C 2154.5,1089.5 2148.5,1089.5 2142.5,1089.5C 2142.58,1083.21 2140.91,1082.38 2137.5,1087C 2116.91,1095.14 2101.74,1089.3 2092,1069.5C 2086.36,1051.72 2090.53,1036.89 2104.5,1025C 2117.13,1017.27 2129.3,1017.77 2141,1026.5C 2141.5,1014.17 2141.67,1001.84 2141.5,989.5 Z M 2120.5,1037.5 C 2138.08,1037.6 2144.58,1046.27 2140,1063.5C 2134.6,1073.41 2126.77,1075.91 2116.5,1071C 2109.46,1064.12 2107.62,1055.95 2111,1046.5C 2112.87,1042.01 2116.04,1039.01 2120.5,1037.5 Z"/></g>
<g><path style="opacity:0.95" fill="#365fa3" d="M 2299.5,989.5 C 2305.83,989.5 2312.17,989.5 2318.5,989.5C 2318.5,1022.83 2318.5,1056.17 2318.5,1089.5C 2312.5,1089.5 2306.5,1089.5 2300.5,1089.5C 2300.58,1083.21 2298.91,1082.38 2295.5,1087C 2272.65,1095.61 2257.15,1088.44 2249,1065.5C 2245.29,1049.14 2249.79,1035.64 2262.5,1025C 2272.39,1019.3 2282.73,1018.3 2293.5,1022C 2295.62,1023.12 2297.46,1024.62 2299,1026.5C 2299.5,1014.17 2299.67,1001.84 2299.5,989.5 Z M 2278.5,1037.5 C 2296.08,1037.6 2302.58,1046.27 2298,1063.5C 2292.71,1073.72 2284.87,1076.22 2274.5,1071C 2267.46,1064.12 2265.62,1055.95 2269,1046.5C 2271.43,1042.57 2274.6,1039.57 2278.5,1037.5 Z"/></g>
<g><path style="opacity:0.97" fill="#365fa3" d="M 140.5,992.5 C 167.833,992.5 195.167,992.5 222.5,992.5C 222.5,998.5 222.5,1004.5 222.5,1010.5C 212.167,1010.5 201.833,1010.5 191.5,1010.5C 191.5,1036.83 191.5,1063.17 191.5,1089.5C 184.833,1089.5 178.167,1089.5 171.5,1089.5C 171.5,1063.17 171.5,1036.83 171.5,1010.5C 161.167,1010.5 150.833,1010.5 140.5,1010.5C 140.5,1004.5 140.5,998.5 140.5,992.5 Z"/></g>
<g><path style="opacity:0.916" fill="#365fa3" d="M 966.5,993.5 C 973.841,993.334 981.174,993.5 988.5,994C 982.5,1000.67 976.5,1007.33 970.5,1014C 965.136,1014.83 959.802,1014.66 954.5,1013.5C 958.129,1006.55 962.129,999.887 966.5,993.5 Z"/></g>
<g><path style="opacity:0.914" fill="#365fa3" d="M 1491.5,993.5 C 1498.84,993.334 1506.17,993.5 1513.5,994C 1507.5,1000.67 1501.5,1007.33 1495.5,1014C 1490.14,1014.83 1484.8,1014.66 1479.5,1013.5C 1483.51,1006.81 1487.51,1000.14 1491.5,993.5 Z"/></g>
<g><path style="opacity:0.948" fill="#365fa3" d="M 1138.5,1001.5 C 1144.17,1001.5 1149.83,1001.5 1155.5,1001.5C 1155.5,1008.17 1155.5,1014.83 1155.5,1021.5C 1160.17,1021.5 1164.83,1021.5 1169.5,1021.5C 1169.5,1027.17 1169.5,1032.83 1169.5,1038.5C 1164.83,1038.5 1160.17,1038.5 1155.5,1038.5C 1155.33,1048.51 1155.5,1058.51 1156,1068.5C 1156.83,1070.67 1158.33,1072.17 1160.5,1073C 1163.53,1073.5 1166.53,1073.33 1169.5,1072.5C 1169.81,1078.09 1169.47,1083.59 1168.5,1089C 1157.7,1092.18 1148.2,1090.01 1140,1082.5C 1138.44,1080.04 1137.44,1077.38 1137,1074.5C 1136.5,1062.5 1136.33,1050.5 1136.5,1038.5C 1132.5,1038.5 1128.5,1038.5 1124.5,1038.5C 1124.5,1032.83 1124.5,1027.17 1124.5,1021.5C 1129.78,1022.44 1133.94,1020.77 1137,1016.5C 1138.33,1011.6 1138.83,1006.6 1138.5,1001.5 Z"/></g>
<g><path style="opacity:0.951" fill="#365fa3" d="M 379.5,1019.5 C 390.078,1017.92 398.578,1021.25 405,1029.5C 416.602,1017.99 429.436,1016.49 443.5,1025C 447.999,1029.17 450.499,1034.33 451,1040.5C 451.5,1056.83 451.667,1073.16 451.5,1089.5C 445.167,1089.5 438.833,1089.5 432.5,1089.5C 432.667,1074.5 432.5,1059.5 432,1044.5C 430.083,1039.79 426.583,1037.46 421.5,1037.5C 415.607,1037.23 411.774,1039.9 410,1045.5C 409.5,1060.16 409.333,1074.83 409.5,1089.5C 403.167,1089.5 396.833,1089.5 390.5,1089.5C 390.667,1075.5 390.5,1061.5 390,1047.5C 387.291,1037.61 381.125,1034.77 371.5,1039C 369.106,1040.95 367.606,1043.45 367,1046.5C 366.5,1060.83 366.333,1075.16 366.5,1089.5C 360.167,1089.5 353.833,1089.5 347.5,1089.5C 347.5,1066.83 347.5,1044.17 347.5,1021.5C 353.5,1021.5 359.5,1021.5 365.5,1021.5C 364.601,1027.89 365.935,1028.72 369.5,1024C 372.893,1022.38 376.226,1020.88 379.5,1019.5 Z"/></g>
<g><path style="opacity:0.936" fill="#365fa3" d="M 521.5,1019.5 C 530.878,1018.28 539.545,1020.11 547.5,1025C 552.634,1028.92 554.967,1033.92 554.5,1040C 549.576,1040.94 544.743,1042.11 540,1043.5C 536.743,1035.12 530.909,1032.62 522.5,1036C 519.595,1039.37 519.928,1042.37 523.5,1045C 530.246,1046.35 536.913,1048.02 543.5,1050C 554.581,1055.66 558.415,1064.5 555,1076.5C 548.041,1088.61 537.541,1093.45 523.5,1091C 510.482,1089.48 502.815,1082.31 500.5,1069.5C 506.142,1068.37 511.809,1067.37 517.5,1066.5C 519.506,1074.18 524.506,1077.35 532.5,1076C 539.148,1072.28 539.148,1068.61 532.5,1065C 524.866,1063.59 517.533,1061.26 510.5,1058C 501.293,1049.13 500.126,1039.3 507,1028.5C 511.042,1024.07 515.875,1021.07 521.5,1019.5 Z"/></g>
<g><path style="opacity:0.948" fill="#365fa3" d="M 602.5,1019.5 C 612.885,1018.24 621.385,1021.57 628,1029.5C 634.746,1020.93 643.579,1017.76 654.5,1020C 664.248,1022.08 670.415,1027.92 673,1037.5C 673.5,1054.83 673.667,1072.16 673.5,1089.5C 667.5,1089.5 661.5,1089.5 655.5,1089.5C 655.667,1075.5 655.5,1061.5 655,1047.5C 654.164,1041 650.497,1037.66 644,1037.5C 637.005,1037.32 633.005,1040.65 632,1047.5C 631.5,1061.5 631.333,1075.5 631.5,1089.5C 625.167,1089.5 618.833,1089.5 612.5,1089.5C 612.667,1074.83 612.5,1060.16 612,1045.5C 610.627,1040.06 607.127,1037.39 601.5,1037.5C 596.04,1037.15 592.207,1039.48 590,1044.5C 589.5,1059.5 589.333,1074.5 589.5,1089.5C 582.833,1089.5 576.167,1089.5 569.5,1089.5C 569.5,1066.83 569.5,1044.17 569.5,1021.5C 575.833,1021.5 582.167,1021.5 588.5,1021.5C 587.601,1027.89 588.935,1028.72 592.5,1024C 595.815,1022.17 599.149,1020.67 602.5,1019.5 Z"/></g>
<g><path style="opacity:0.948" fill="#365fa3" d="M 715.5,1019.5 C 746.24,1019.07 760.073,1034.07 757,1064.5C 750.607,1083.96 737.107,1092.79 716.5,1091C 693.881,1085.28 684.048,1070.78 687,1047.5C 690.465,1031.87 699.965,1022.53 715.5,1019.5 Z M 720.5,1036.5 C 736.467,1039.41 741.967,1048.75 737,1064.5C 731.692,1073.36 724.192,1075.86 714.5,1072C 704.914,1064.13 703.081,1054.63 709,1043.5C 712.225,1039.98 716.058,1037.65 720.5,1036.5 Z"/></g>
<g><path style="opacity:0.944" fill="#365fa3" d="M 828.5,1019.5 C 844.884,1017 857.384,1022.67 866,1036.5C 866.977,1038.74 867.477,1041.07 867.5,1043.5C 862.058,1044.76 856.724,1046.42 851.5,1048.5C 846.139,1037.28 837.806,1034.45 826.5,1040C 817.533,1049.7 817.2,1059.7 825.5,1070C 837.098,1076.58 846.098,1074.08 852.5,1062.5C 857.955,1064.32 863.289,1066.32 868.5,1068.5C 860.418,1087.72 846.084,1094.88 825.5,1090C 803.014,1080.52 795.514,1064.02 803,1040.5C 808.337,1029.59 816.837,1022.59 828.5,1019.5 Z"/></g>
<g><path style="opacity:0.945" fill="#365fa3" d="M 956.5,1019.5 C 985.33,1018 998.664,1031.66 996.5,1060.5C 980.5,1060.5 964.5,1060.5 948.5,1060.5C 952.848,1073.84 961.514,1077.67 974.5,1072C 977.07,1069.93 979.07,1067.43 980.5,1064.5C 985.4,1066.24 990.4,1067.58 995.5,1068.5C 991.315,1083.83 981.149,1091.49 965,1091.5C 936.687,1087.82 925.353,1071.82 931,1043.5C 935.217,1030.78 943.717,1022.78 956.5,1019.5 Z M 958.5,1035.5 C 969.032,1033.3 975.366,1037.3 977.5,1047.5C 967.828,1047.67 958.161,1047.5 948.5,1047C 950.268,1041.74 953.601,1037.9 958.5,1035.5 Z"/></g>
<g><path style="opacity:0.95" fill="#365fa3" d="M 1206.5,1019.5 C 1237.69,1018.52 1251.85,1033.52 1249,1064.5C 1242.61,1083.96 1229.11,1092.79 1208.5,1091C 1194.47,1088.63 1184.97,1080.8 1180,1067.5C 1174.6,1043.29 1183.43,1027.29 1206.5,1019.5 Z M 1212.5,1036.5 C 1227.05,1038.57 1232.88,1046.9 1230,1061.5C 1225.55,1072.47 1217.72,1075.97 1206.5,1072C 1196.79,1064.16 1194.96,1054.66 1201,1043.5C 1204.23,1039.98 1208.06,1037.65 1212.5,1036.5 Z"/></g>
<g><path style="opacity:0.946" fill="#365fa3" d="M 1372.5,1019.5 C 1383.08,1017.92 1391.58,1021.25 1398,1029.5C 1407.34,1019.37 1418.51,1016.87 1431.5,1022C 1439.04,1026.22 1443.2,1032.72 1444,1041.5C 1444.5,1057.5 1444.67,1073.5 1444.5,1089.5C 1438.17,1089.5 1431.83,1089.5 1425.5,1089.5C 1425.67,1074.83 1425.5,1060.16 1425,1045.5C 1421.5,1037.56 1415.67,1035.4 1407.5,1039C 1405.62,1040.54 1404.12,1042.38 1403,1044.5C 1402.5,1059.5 1402.33,1074.5 1402.5,1089.5C 1395.83,1089.5 1389.17,1089.5 1382.5,1089.5C 1382.67,1074.5 1382.5,1059.5 1382,1044.5C 1380.47,1039.31 1376.97,1036.98 1371.5,1037.5C 1365.63,1037.2 1361.8,1039.86 1360,1045.5C 1359.5,1060.16 1359.33,1074.83 1359.5,1089.5C 1353.17,1089.5 1346.83,1089.5 1340.5,1089.5C 1340.5,1066.83 1340.5,1044.17 1340.5,1021.5C 1346.5,1021.5 1352.5,1021.5 1358.5,1021.5C 1357.6,1027.89 1358.93,1028.72 1362.5,1024C 1365.82,1022.17 1369.15,1020.67 1372.5,1019.5 Z"/></g>
<g><path style="opacity:0.939" fill="#365fa3" d="M 1481.5,1019.5 C 1491.46,1018.28 1500.79,1020.12 1509.5,1025C 1514.58,1029.32 1517.41,1034.82 1518,1041.5C 1518.17,1057.41 1518.67,1073.24 1519.5,1089C 1513.47,1089.83 1507.47,1089.66 1501.5,1088.5C 1500.85,1086.88 1500.35,1085.22 1500,1083.5C 1487.33,1094.17 1474.67,1094.17 1462,1083.5C 1454.11,1070.46 1456.61,1059.96 1469.5,1052C 1478.38,1049.78 1487.38,1048.11 1496.5,1047C 1500.24,1043.97 1500.24,1040.81 1496.5,1037.5C 1490.78,1033.67 1485.11,1033.83 1479.5,1038C 1477.8,1040.24 1476.8,1042.74 1476.5,1045.5C 1470.28,1045.06 1464.28,1043.72 1458.5,1041.5C 1461.65,1029.34 1469.32,1022.01 1481.5,1019.5 Z M 1495.5,1059.5 C 1496.83,1059.5 1498.17,1059.5 1499.5,1059.5C 1498.87,1074.72 1491.7,1079.38 1478,1073.5C 1475.73,1069.31 1476.56,1065.81 1480.5,1063C 1485.59,1061.62 1490.59,1060.45 1495.5,1059.5 Z"/></g>
<g><path style="opacity:0.935" fill="#365fa3" d="M 1551.5,1019.5 C 1563.13,1017.86 1572.96,1021.19 1581,1029.5C 1583.34,1032.81 1584.17,1036.31 1583.5,1040C 1578.58,1040.94 1573.74,1042.11 1569,1043.5C 1566.4,1036.12 1561.23,1033.28 1553.5,1035C 1548.77,1037.92 1548.43,1041.26 1552.5,1045C 1560.02,1046.38 1567.35,1048.38 1574.5,1051C 1587.48,1060.9 1588.81,1072.23 1578.5,1085C 1567.86,1091.85 1556.52,1093.18 1544.5,1089C 1536.31,1085.46 1531.31,1079.3 1529.5,1070.5C 1534.33,1068.66 1539.33,1067.33 1544.5,1066.5C 1546.58,1068.84 1548.58,1071.34 1550.5,1074C 1556.18,1077.71 1561.35,1077.21 1566,1072.5C 1566.76,1070.19 1566.26,1068.19 1564.5,1066.5C 1556.02,1064.13 1547.69,1061.3 1539.5,1058C 1530.29,1049.13 1529.13,1039.3 1536,1028.5C 1540.27,1023.79 1545.44,1020.79 1551.5,1019.5 Z"/></g>
<g><path style="opacity:0.953" fill="#365fa3" d="M 1670.5,1019.5 C 1689.81,1020.31 1700.64,1030.31 1703,1049.5C 1704.69,1078.48 1691.19,1091.98 1662.5,1090C 1658.64,1088.82 1655.14,1086.99 1652,1084.5C 1651.5,1094.83 1651.33,1105.16 1651.5,1115.5C 1645.17,1115.5 1638.83,1115.5 1632.5,1115.5C 1632.5,1084.17 1632.5,1052.83 1632.5,1021.5C 1638.83,1021.5 1645.17,1021.5 1651.5,1021.5C 1651.34,1023.53 1651.5,1025.53 1652,1027.5C 1657.35,1022.78 1663.52,1020.11 1670.5,1019.5 Z M 1663.5,1037.5 C 1676.4,1036.23 1683.4,1042.06 1684.5,1055C 1683.07,1070.04 1675.07,1075.71 1660.5,1072C 1652.53,1065.64 1650.03,1057.47 1653,1047.5C 1655.11,1042.56 1658.61,1039.22 1663.5,1037.5 Z"/></g>
<g><path style="opacity:0.948" fill="#365fa3" d="M 1740.5,1019.5 C 1761.03,1017.01 1774.87,1025.34 1782,1044.5C 1786.69,1066.3 1778.85,1081.47 1758.5,1090C 1736.69,1094.68 1721.53,1086.85 1713,1066.5C 1708.35,1042.45 1717.51,1026.78 1740.5,1019.5 Z M 1745.5,1036.5 C 1757.47,1037.14 1763.81,1043.47 1764.5,1055.5C 1762.02,1071.23 1753.35,1076.4 1738.5,1071C 1729.65,1062.44 1728.49,1052.94 1735,1042.5C 1738.07,1039.55 1741.57,1037.55 1745.5,1036.5 Z"/></g>
<g><path style="opacity:0.939" fill="#365fa3" d="M 1812.5,1019.5 C 1824.13,1017.86 1833.96,1021.19 1842,1029.5C 1844.34,1032.81 1845.17,1036.31 1844.5,1040C 1839.58,1040.94 1834.74,1042.11 1830,1043.5C 1827.67,1035.58 1822.51,1032.75 1814.5,1035C 1809.26,1038.53 1809.26,1041.86 1814.5,1045C 1822.48,1046.33 1830.15,1048.66 1837.5,1052C 1847.6,1060.86 1849.1,1071.02 1842,1082.5C 1831.19,1091.76 1819.02,1093.92 1805.5,1089C 1797.13,1085.14 1792.47,1078.64 1791.5,1069.5C 1796.15,1068.5 1800.82,1067.5 1805.5,1066.5C 1807.84,1068.65 1809.84,1071.15 1811.5,1074C 1816.82,1077.48 1821.99,1077.31 1827,1073.5C 1827.94,1070.65 1827.44,1068.15 1825.5,1066C 1817.76,1063.92 1810.09,1061.58 1802.5,1059C 1790.43,1049.12 1789.43,1038.12 1799.5,1026C 1803.4,1022.77 1807.73,1020.6 1812.5,1019.5 Z"/></g>
<g><path style="opacity:0.945" fill="#365fa3" d="M 2198.5,1019.5 C 2208.51,1018.28 2217.85,1020.11 2226.5,1025C 2230.73,1028.64 2233.57,1033.14 2235,1038.5C 2235.22,1055.52 2235.72,1072.52 2236.5,1089.5C 2230.5,1089.5 2224.5,1089.5 2218.5,1089.5C 2218.8,1087.4 2218.47,1085.4 2217.5,1083.5C 2207.02,1092.56 2195.68,1093.73 2183.5,1087C 2172.87,1077.55 2171.87,1067.22 2180.5,1056C 2183.34,1054.08 2186.34,1052.41 2189.5,1051C 2198.51,1049.72 2207.35,1047.88 2216,1045.5C 2216.61,1038.43 2213.27,1034.77 2206,1034.5C 2199.61,1035.06 2195.44,1038.39 2193.5,1044.5C 2188.11,1045.03 2182.78,1044.36 2177.5,1042.5C 2177.23,1034.55 2180.56,1028.39 2187.5,1024C 2191.16,1022.18 2194.82,1020.68 2198.5,1019.5 Z M 2212.5,1059.5 C 2213.83,1059.5 2215.17,1059.5 2216.5,1059.5C 2217.02,1072.14 2211.02,1077.64 2198.5,1076C 2194.3,1072.97 2193.47,1069.14 2196,1064.5C 2197.42,1063.54 2198.92,1062.71 2200.5,1062C 2204.7,1061.47 2208.7,1060.64 2212.5,1059.5 Z"/></g>
<g><path style="opacity:0.946" fill="#365fa3" d="M 2359.5,1019.5 C 2387.63,1018.63 2400.97,1032.3 2399.5,1060.5C 2383.5,1060.5 2367.5,1060.5 2351.5,1060.5C 2352.03,1067.53 2355.7,1072.03 2362.5,1074C 2366.93,1074.79 2371.26,1074.46 2375.5,1073C 2378.5,1070.49 2381.17,1067.66 2383.5,1064.5C 2388.39,1066.31 2393.39,1067.64 2398.5,1068.5C 2395,1081.83 2386.33,1089.33 2372.5,1091C 2347.32,1092.16 2333.66,1080.16 2331.5,1055C 2332.56,1036.46 2341.9,1024.62 2359.5,1019.5 Z M 2360.5,1035.5 C 2367.25,1034.29 2373.08,1035.96 2378,1040.5C 2379.41,1042.65 2380.24,1044.98 2380.5,1047.5C 2370.83,1047.5 2361.17,1047.5 2351.5,1047.5C 2352.58,1041.99 2355.58,1037.99 2360.5,1035.5 Z"/></g>
<g><path style="opacity:0.939" fill="#365fa3" d="M 2428.5,1019.5 C 2441.91,1017.13 2452.41,1021.46 2460,1032.5C 2461.43,1035 2461.6,1037.5 2460.5,1040C 2455.58,1040.94 2450.74,1042.11 2446,1043.5C 2443.67,1035.58 2438.51,1032.75 2430.5,1035C 2426.27,1037.33 2425.6,1040.33 2428.5,1044C 2435.45,1046.12 2442.45,1048.12 2449.5,1050C 2461.93,1056.51 2465.43,1066.35 2460,1079.5C 2452.5,1089.01 2442.67,1092.84 2430.5,1091C 2417.43,1089.42 2409.76,1082.25 2407.5,1069.5C 2412.15,1068.5 2416.82,1067.5 2421.5,1066.5C 2422.44,1066.61 2423.28,1066.94 2424,1067.5C 2426.25,1074.55 2431.09,1077.38 2438.5,1076C 2443.12,1074.92 2444.62,1072.09 2443,1067.5C 2442.5,1067 2442,1066.5 2441.5,1066C 2433.76,1063.92 2426.09,1061.58 2418.5,1059C 2406.52,1049.09 2405.52,1038.09 2415.5,1026C 2419.66,1023.25 2423.99,1021.09 2428.5,1019.5 Z"/></g>
<g><path style="opacity:0.931" fill="#365fa3" d="M 915.5,1020.5 C 917.591,1020.32 919.591,1020.65 921.5,1021.5C 922.496,1027.8 922.83,1034.13 922.5,1040.5C 913.733,1038.39 906.899,1041.06 902,1048.5C 900.554,1062.09 900.054,1075.76 900.5,1089.5C 893.833,1089.5 887.167,1089.5 880.5,1089.5C 880.5,1066.83 880.5,1044.17 880.5,1021.5C 886.833,1021.5 893.167,1021.5 899.5,1021.5C 898.419,1028.14 899.753,1029.31 903.5,1025C 907.301,1022.58 911.301,1021.08 915.5,1020.5 Z"/></g>
<g><path style="opacity:0.961" fill="#365fa3" d="M 232.5,1021.5 C 238.833,1021.5 245.167,1021.5 251.5,1021.5C 251.333,1035.84 251.5,1050.17 252,1064.5C 255.315,1072.61 261.148,1075.11 269.5,1072C 271.917,1070.34 273.75,1068.17 275,1065.5C 275.5,1050.84 275.667,1036.17 275.5,1021.5C 281.833,1021.5 288.167,1021.5 294.5,1021.5C 294.269,1044.18 294.602,1066.85 295.5,1089.5C 289.491,1089.67 283.491,1089.5 277.5,1089C 276.773,1087.6 276.273,1086.1 276,1084.5C 262.899,1093.91 250.233,1093.24 238,1082.5C 235.566,1079.2 233.899,1075.54 233,1071.5C 232.5,1054.84 232.333,1038.17 232.5,1021.5 Z"/></g>
<g><path style="opacity:0.915" fill="#365fa3" d="M 468.5,1021.5 C 475.167,1021.5 481.833,1021.5 488.5,1021.5C 488.5,1044.17 488.5,1066.83 488.5,1089.5C 481.833,1089.5 475.167,1089.5 468.5,1089.5C 468.5,1066.83 468.5,1044.17 468.5,1021.5 Z"/></g>
<g><path style="opacity:0.963" fill="#365fa3" d="M 1094.5,1021.5 C 1100.83,1021.5 1107.17,1021.5 1113.5,1021.5C 1113.5,1044.17 1113.5,1066.83 1113.5,1089.5C 1107.17,1089.5 1100.83,1089.5 1094.5,1089.5C 1094.5,1066.83 1094.5,1044.17 1094.5,1021.5 Z"/></g>
<g><path style="opacity:0.963" fill="#365fa3" d="M 1860.5,1021.5 C 1866.83,1021.5 1873.17,1021.5 1879.5,1021.5C 1879.5,1044.17 1879.5,1066.83 1879.5,1089.5C 1873.17,1089.5 1866.83,1089.5 1860.5,1089.5C 1860.5,1066.83 1860.5,1044.17 1860.5,1021.5 Z"/></g>
<g><path style="opacity:0.963" fill="#365fa3" d="M 1981.5,1021.5 C 1987.83,1021.5 1994.17,1021.5 2000.5,1021.5C 2000.5,1044.17 2000.5,1066.83 2000.5,1089.5C 1994.17,1089.5 1987.83,1089.5 1981.5,1089.5C 1981.5,1066.83 1981.5,1044.17 1981.5,1021.5 Z"/></g>
<g><path style="opacity:0.963" fill="#365fa3" d="M 2057.5,1021.5 C 2063.83,1021.5 2070.17,1021.5 2076.5,1021.5C 2076.5,1044.17 2076.5,1066.83 2076.5,1089.5C 2070.17,1089.5 2063.83,1089.5 2057.5,1089.5C 2057.5,1066.83 2057.5,1044.17 2057.5,1021.5 Z"/></g>
<g><path style="opacity:0.924" fill="#365fa3" d="M 2484.5,1064.5 C 2496.14,1063.64 2501.64,1068.98 2501,1080.5C 2497.66,1089.29 2491.5,1092.12 2482.5,1089C 2475.93,1085.34 2473.76,1079.84 2476,1072.5C 2477.77,1068.56 2480.61,1065.89 2484.5,1064.5 Z"/></g>
<g><path style="opacity:0.922" fill="#365fa3" d="M 1269.5,1066.5 C 1282.34,1064.24 1289.01,1069.58 1289.5,1082.5C 1288.71,1099.46 1280.04,1109.46 1263.5,1112.5C 1263.18,1109.1 1263.51,1105.77 1264.5,1102.5C 1271.3,1100.7 1275.3,1096.37 1276.5,1089.5C 1264.46,1089.95 1259.96,1084.29 1263,1072.5C 1264.49,1069.69 1266.66,1067.69 1269.5,1066.5 Z"/></g>
</svg>
