<?xml version="1.0" encoding="utf-8"?>
<!-- Generator: Adobe Illustrator 28.1.0, SVG Export Plug-In . SVG Version: 6.00 Build 0)  -->
<svg version="1.1" id="Capa_1" xmlns="http://www.w3.org/2000/svg" xmlns:xlink="http://www.w3.org/1999/xlink" x="0px" y="0px"
	 viewBox="0 0 764.32 289.09" style="enable-background:new 0 0 764.32 289.09;" xml:space="preserve">
<style type="text/css">
	.st0{fill:#195FA7;}
	.st1{fill:#FD4A5C;}
	.st2{fill:#6AAAE4;}
	.st3{fill:#F18A00;}
	.st4{fill:#FFE939;}
	.st5{fill:#165B96;}
</style>
<g>
	<g>
		<path class="st0" d="M613.11,107.85H452.57c-2.96,0-5.35,2.4-5.35,5.36v119.38c0,2.96,2.39,5.36,5.35,5.36h160.53
			c2.95,0,5.35-2.4,5.35-5.36V113.21C618.46,110.25,616.06,107.85,613.11,107.85z"/>
		<path class="st1" d="M729.35,124.31l-182.8-104c-3.37-1.92-7.38-1.2-8.97,1.59L473.5,134.53c-1.59,2.79-0.15,6.6,3.22,8.52
			l182.8,104c3.36,1.91,7.38,1.2,8.97-1.59l64.07-112.63C734.16,130.04,732.71,126.22,729.35,124.31z"/>
		<path class="st2" d="M710.84,115.28l-197.02-73.6c-3.63-1.36-7.48-0.01-8.6,3l-45.34,121.39c-1.12,3.01,0.9,6.54,4.53,7.9
			l197.02,73.6c3.62,1.35,7.48,0.01,8.6-2.99l45.34-121.39C716.49,120.17,714.46,116.63,710.84,115.28z"/>
		<path class="st3" d="M686.25,109.64l-207.48-34.4c-3.82-0.63-7.34,1.42-7.87,4.59l-21.2,127.83c-0.53,3.17,2.14,6.25,5.96,6.88
			l207.48,34.4c3.81,0.63,7.34-1.42,7.87-4.59l21.2-127.83C692.74,113.35,690.07,110.27,686.25,109.64z"/>
		<path class="st0" d="M664.55,107.85H454.23c-3.87,0-7.01,2.6-7.01,5.82v129.58c0,3.21,3.14,5.81,7.01,5.81h210.32
			c3.87,0,7.01-2.6,7.01-5.81V113.67C671.56,110.46,668.42,107.85,664.55,107.85z"/>
	</g>
	<path class="st0" d="M664.55,107.85H454.23c-3.87,0-7.01,2.6-7.01,5.82v129.58c0,3.21,3.14,5.81,7.01,5.81h210.32
		c3.87,0,7.01-2.6,7.01-5.81V113.67C671.56,110.46,668.42,107.85,664.55,107.85z"/>
	<g>
		<path class="st4" d="M484.64,175.21H473.9v-28.47h10.74c7.42,0,14.93,4.89,14.94,14.23C499.57,170.31,492.06,175.21,484.64,175.21
			 M484.64,133.6H473.9v-0.04h-13.21v78.05h13.21v-23.27h10.74c15.99,0,28.06-11.76,28.07-27.37
			C512.7,145.36,500.63,133.6,484.64,133.6"/>
		<path class="st4" d="M548.03,199.7c-0.06,0-0.11-0.01-0.16-0.01c-0.05,0-0.1,0.01-0.16,0.01c-9.99,0-16.89-7.72-16.89-17.08
			c0-9.36,6.89-17.07,16.89-17.07c0.06,0,0.11,0.01,0.16,0.01c0.05,0,0.1-0.01,0.16-0.01c9.99,0,16.89,7.71,16.89,17.07
			C564.92,191.98,558.02,199.7,548.03,199.7 M547.87,153.64c-16.37,0-29.95,11.79-29.96,28.98c0.01,17.19,13.59,28.99,29.96,28.99
			c6.3,0,12.18-1.76,17.04-4.89v4h12.92v-28.09C577.83,165.55,564.25,153.64,547.87,153.64"/>
		<path class="st4" d="M628.6,153.64v30.45c0,7.48-6.09,13.57-13.57,13.57s-13.57-6.09-13.57-13.57v-30.45H588.4v30.45
			c0,14.68,11.94,26.63,26.63,26.63c5.17,0,9.98-1.51,14.06-4.06c-2.21,7.48-9.23,12.96-17.4,12.96c-6.61,0-12.37-3.59-15.5-8.9
			h-13.03c3.87,12.07,15.22,20.88,28.53,20.88c16.48,0,29.96-13.48,29.96-29.96v-47.99H628.6z"/>
	</g>
	<g>
		<path class="st5" d="M136.11,149.91c-17.19,0-31.45,12.38-31.46,30.43c0.01,18.05,14.27,30.43,31.46,30.43
			c17.19,0,31.45-12.38,31.46-30.43C167.55,162.29,153.3,149.91,136.11,149.91z M136.27,198.27c-0.05,0-0.11,0-0.16,0
			c-0.05,0-0.1,0-0.16,0c-10.5,0-17.74-8.1-17.74-17.93s7.24-17.93,17.74-17.93c0.05,0,0.1,0.01,0.16,0.01
			c0.05,0,0.11-0.01,0.16-0.01c10.5,0,17.74,8.1,17.74,17.93S146.77,198.27,136.27,198.27z"/>
		<path class="st5" d="M91.33,187.55c-5.19,6.22-13,10.18-21.74,10.18c-15.64,0-28.32-12.68-28.32-28.32
			c0-15.64,12.68-28.32,28.32-28.32c8.65,0,16.37,3.87,21.56,9.97l9.85-8.63c-7.71-8.81-19.14-14.39-31.89-14.39
			c-23.23,0-42.06,18.52-42.06,41.37c0,22.85,18.83,41.37,42.06,41.37c12.84,0,24.33-5.66,32.04-14.58L91.33,187.55z"/>
		<path class="st5" d="M272.26,149.83c-17.21,0-31.51,12.52-31.51,30.48c0,17.96,0,55.29,0,55.29h13.58v-29.95
			c5.11,3.29,11.3,5.14,17.93,5.14c17.21,0,31.49-12.4,31.51-30.48C303.75,162.22,289.47,149.83,272.26,149.83z M272.42,198.26
			c-0.05,0-0.1-0.01-0.16-0.01s-0.11,0.01-0.16,0.01c-10.51,0-17.76-8.11-17.76-17.96c0-9.85,7.25-17.96,17.76-17.96
			c0.05,0,0.11,0.01,0.16,0.01s0.1-0.01,0.16-0.01c10.51,0,17.76,8.11,17.76,17.96C290.18,190.15,282.93,198.26,272.42,198.26z"/>
		<path class="st5" d="M204.16,149.83c-17.21,0-31.5,12.52-31.5,30.48c0,17.96,0,55.29,0,55.29h13.58v-29.95
			c5.11,3.29,11.29,5.14,17.92,5.14c17.21,0,31.49-12.4,31.51-30.48C235.65,162.22,221.38,149.83,204.16,149.83z M204.32,198.26
			c-0.05,0-0.1-0.01-0.16-0.01c-0.05,0-0.1,0.01-0.16,0.01c-10.51,0-17.76-8.11-17.76-17.96c0-9.85,7.25-17.96,17.76-17.96
			c0.06,0,0.11,0.01,0.16,0.01c0.05,0,0.1-0.01,0.16-0.01c10.52,0,17.76,8.11,17.76,17.96
			C222.08,190.15,214.84,198.26,204.32,198.26z"/>
		<path class="st5" d="M336.34,149.83c-15.95,0-29.18,12.4-29.19,30.48c0.01,18.08,13.24,30.48,29.19,30.48
			c9.6,0,19.72-2.99,25.06-10.51l-7.99-7.99c-3.49,4.02-8.8,6.52-15.41,6.52c-10.46,0-17.47-6.16-17.47-14.92h44.81
			c0.12-1.17,0.19-2.37,0.19-3.58C365.52,162.22,354.18,149.83,336.34,149.83z M320.78,174.25c0-5.4,7.02-12.79,16.41-12.79
			c6.17,0,14.38,4.68,14.38,12.79H320.78z"/>
		<path class="st5" d="M384.2,180.31v-51.35h-13.58v51.35l0,0c0.02,17.88,13.99,30.21,30.96,30.47v-12.52
			C391.28,198.05,384.2,190.03,384.2,180.31z"/>
	</g>
	<g>
		<g>
			<path class="st4" d="M658.1,205.32c0,3.54-2.78,6.32-6.39,6.32c-3.58,0-6.44-2.78-6.44-6.32c0-3.46,2.86-6.24,6.44-6.24
				C655.32,199.08,658.1,201.86,658.1,205.32z M646.88,205.32c0,2.78,2.06,4.99,4.87,4.99c2.75,0,4.76-2.21,4.76-4.95
				c0-2.78-2.01-5.02-4.8-5.02C648.93,200.34,646.88,202.59,646.88,205.32z M650.72,208.6h-1.45v-6.24c0.57-0.12,1.37-0.2,2.4-0.2
				c1.18,0,1.71,0.2,2.17,0.46c0.34,0.27,0.6,0.76,0.6,1.37c0,0.69-0.53,1.22-1.29,1.44v0.08c0.6,0.23,0.95,0.69,1.14,1.52
				c0.2,0.95,0.3,1.33,0.46,1.57h-1.57c-0.19-0.23-0.3-0.8-0.49-1.53c-0.11-0.69-0.5-0.99-1.3-0.99h-0.69V208.6z M650.75,205.06
				h0.69c0.8,0,1.45-0.27,1.45-0.91c0-0.57-0.42-0.95-1.34-0.95c-0.38,0-0.64,0.04-0.8,0.08V205.06z"/>
		</g>
	</g>
</g>
<text transform="matrix(1 0 0 1 -982.2318 387.4493)" style="fill:#5C5B5F; font-family:'CircularStd-Book'; font-size:16.8553px;">Digital:</text>
<text transform="matrix(1 0 0 1 -681.0205 1009.8521)" style="fill:#5C5B5F; font-family:'CircularStd-Book'; font-size:16.8553px;">Tinta directa e impresión:</text>
<text transform="matrix(1 0 0 1 -322.8329 1011.134)"><tspan x="0" y="0" style="fill:#696868; font-family:'CircularStd-Book'; font-size:16.8553px;">Tinta directa </tspan><tspan x="85.29" y="0" style="fill:#5C5B5F; font-family:'CircularStd-Book'; font-size:16.8553px;">e impresión:</tspan></text>
</svg>
