<svg xmlns="http://www.w3.org/2000/svg" viewBox="0 0 134.72 31.86"><defs><style>.cls-1{fill:#008ad7;}.cls-2{fill:#00cd00;}</style></defs><g id="Capa_2" data-name="Capa 2"><g id="Layer_1" data-name="Layer 1"><path class="cls-1" d="M134.72,28.8a2.64,2.64,0,1,1-2.63-2.63A2.61,2.61,0,0,1,134.72,28.8Zm-.49,0A2.15,2.15,0,1,0,132.09,31,2.12,2.12,0,0,0,134.23,28.8Zm-1.9-1.32a.8.8,0,0,1,.89.79.78.78,0,0,1-.57.77l.65,1.08h-.59l-.6-1h-.46v1h-.51V27.48Zm-.68,1.22h.57c.27,0,.47-.13.47-.4s-.18-.4-.47-.4h-.57Z"/><path class="cls-2" d="M120.82,12.41a1.51,1.51,0,0,1,1.63-1.66h1.77a1.52,1.52,0,0,1,1.64,1.66v.5a1.52,1.52,0,0,1-1.64,1.67h-1.77a1.51,1.51,0,0,1-1.63-1.67Z"/><path class="cls-1" d="M53.56,24.88c0,2.47,1.11,3.48,2.7,3.48a5.83,5.83,0,0,0,3.82-2.08V16.57a.86.86,0,0,1,.87-.89h3.18a.86.86,0,0,1,.86.89v14.1a.86.86,0,0,1-.86.9H61a.87.87,0,0,1-.87-.9v-.91a7.27,7.27,0,0,1-5,2.1c-3.78,0-6.46-2.05-6.46-7V16.57a.87.87,0,0,1,.87-.89h3.17a.87.87,0,0,1,.88.89Z"/><path class="cls-1" d="M71.9,24.78c.21,2.37,1.25,3.42,3.64,3.42a3.63,3.63,0,0,0,2.79-1A2,2,0,0,1,80,26.45h2.13a.86.86,0,0,1,.87.89c0,3.08-3.11,4.15-7.77,4.15-5.18,0-8.29-2.85-8.29-8.22S70,15,75.19,15s8.29,2.82,8.29,8v.83a.86.86,0,0,1-.87.89Zm0-3.06h6.6c-.09-2.22-1.14-3.41-3.29-3.41S72,19.5,71.88,21.72Z"/><path class="cls-1" d="M93.41,31.49c-4.77,0-7.8-1.07-7.8-4.15a.86.86,0,0,1,.87-.89h2.13a2,2,0,0,1,1.63.77,3.66,3.66,0,0,0,2.82,1c2.45,0,3.26-.57,3.26-1.4,0-2.47-10.74-1.1-10.74-7.1C85.58,16.35,88.87,15,93,15c4.78,0,7.8,1.07,7.8,4.16a.87.87,0,0,1-.87.89H97.77a2,2,0,0,1-1.62-.77,3.66,3.66,0,0,0-2.83-1c-2,0-2.82.56-2.82,1.39,0,2.47,10.74,1,10.74,7.1C101.24,30.16,98,31.49,93.41,31.49Z"/><path class="cls-1" d="M108.28,21.9a3.4,3.4,0,0,0,3.38-2L113,17a2.29,2.29,0,0,1,2-1.37h2.68c.75,0,.84.6.49,1.37l-1.83,4a4.67,4.67,0,0,1-3,2.61,5.37,5.37,0,0,1,3,2.62l2.42,4c.46.78.26,1.37-.5,1.37h-2.68a2.61,2.61,0,0,1-2.18-1.37l-1.8-3a3.91,3.91,0,0,0-3.38-1.93V30.6a.87.87,0,0,1-.88.89h-3.17a.86.86,0,0,1-.86-.89V12a.85.85,0,0,1,.86-.89h3.17a.87.87,0,0,1,.88.89Z"/><path class="cls-1" d="M36.06,21.9a3.4,3.4,0,0,0,3.38-2l1.36-3a2.31,2.31,0,0,1,2-1.37h2.68c.75,0,.84.6.49,1.37l-1.84,4a4.63,4.63,0,0,1-3,2.61,5.33,5.33,0,0,1,3,2.62l2.43,4c.46.78.26,1.37-.5,1.37H43.42a2.61,2.61,0,0,1-2.18-1.37l-1.8-3a3.9,3.9,0,0,0-3.38-1.93V30.6a.86.86,0,0,1-.87.89H32a.87.87,0,0,1-.88-.89V12a.87.87,0,0,1,.88-.89h3.17a.86.86,0,0,1,.87.89Z"/><path class="cls-1" d="M121.75,31.49a.87.87,0,0,1-.87-.89V16.86a.87.87,0,0,1,.87-.89h3.18a.87.87,0,0,1,.87.89V30.6a.87.87,0,0,1-.87.89Z"/><path class="cls-1" d="M19.64,18.69c0,.43-.84,7.91-1.23,11.63a1.39,1.39,0,0,1-1.51,1.17H4.21c-1.33,0-1.8-.58-1.93-1.29S1.45,22.45,1.1,20L1,18.72a1.08,1.08,0,0,1,1-1.15H18.54a1.11,1.11,0,0,1,1.1,1.12Z"/><path class="cls-2" d="M11.17,10.91a3.1,3.1,0,0,0-2-3.19l-3-1.44A2.42,2.42,0,0,1,4.76,4.14V1.34c0-.79.61-.89,1.4-.52l4,1.93a4.86,4.86,0,0,1,2.66,3.18,5.64,5.64,0,0,1,2.68-3.16L19.6.26C20.38-.23,21,0,21,.78v2.8a2.73,2.73,0,0,1-1.4,2.28L16.51,7.74a3.57,3.57,0,0,0-2,3.18l5.51,0a.9.9,0,0,1,.91.92v3.32a.81.81,0,0,1-.86.86H.9a.89.89,0,0,1-.9-.92V11.79a.89.89,0,0,1,.91-.91Z"/></g></g></svg>